<svg width="361" height="31" viewBox="0 0 361 31" fill="none" xmlns="http://www.w3.org/2000/svg">
    <path d="M176.997 13.4424C176.997 13.4566 176.997 13.4566 176.997 13.4566C176.983 13.4566 176.983 13.4566 176.983 13.4566L176.997 13.4424ZM178.575 11.0297V10.9871C178.418 10.093 177.665 9.4401 176.329 9.01432L176.315 9.00013C174.311 8.40404 172.378 8.80143 170.488 10.2349C170.445 9.90846 170.317 9.58203 170.118 9.28398C170.104 9.2556 170.09 9.24141 170.076 9.22721C169.621 8.73047 169.052 8.54596 168.384 8.70208L168.47 8.68789C167.944 8.74466 167.489 9.04271 167.105 9.58203C166.764 10.022 166.665 10.5471 166.793 11.1148V11.1574V11.1432C167.077 12.1793 167.333 12.9031 167.588 13.3431C165.286 14.0385 163.026 14.5069 160.795 14.7624C159.26 14.9185 157.654 15.032 155.949 15.0746C154.556 15.0888 153.035 15.0888 151.415 15.0604C150.377 14.8475 149.184 14.7198 147.819 14.6772C147.563 14.6772 147.336 14.7908 147.251 14.9753C144.366 14.8901 142.518 14.7766 141.708 14.6346L141.665 14.6204C141.125 14.5637 140.642 14.5069 140.216 14.4643C141.054 14.2514 141.878 14.0102 142.674 13.7263C145.161 12.8322 147.435 11.7251 149.539 10.4336C149.553 10.4762 149.581 10.5046 149.61 10.5329C150.079 10.902 150.846 11.2568 151.941 11.5832L151.969 11.5974C152.879 11.8245 153.717 11.9096 154.485 11.8387H154.527C155.337 11.7109 155.806 11.3703 155.934 10.8026C156.048 10.3484 155.75 9.88008 155.039 9.39752C154.982 9.36914 154.911 9.34075 154.84 9.31237C155.764 8.6737 156.275 7.87891 156.361 6.92799V6.88541C156.332 6.06224 155.977 5.42356 155.309 4.95521C155.295 4.94101 155.266 4.92682 155.238 4.91263C154.385 4.45846 153.504 4.43008 152.623 4.81328H152.609C151.898 5.1539 151.315 5.59388 150.846 6.1332C150.207 5.92031 149.653 5.84935 149.184 5.90612H149.169C148.459 6.01966 148.047 6.31771 147.919 6.80026C147.791 7.26862 147.805 7.79375 147.975 8.37565V8.38984C148.047 8.60273 148.146 8.80143 148.274 8.98594C148.373 9.15625 148.544 9.38333 148.8 9.69557C146.782 10.9303 144.579 11.9948 142.177 12.8605C140.855 13.3289 139.462 13.6979 137.998 13.9534L137.984 13.9676C137.7 14.0102 137.444 14.0669 137.188 14.0953L135.27 13.8398C135.81 13.5844 136.364 13.2579 136.933 12.8605L136.961 12.8322C138.425 11.64 139.022 10.5897 138.78 9.70976L138.766 9.66719C138.737 9.61042 138.709 9.55364 138.681 9.49687C138.624 9.41172 138.553 9.34075 138.467 9.26979C138.155 9.02852 137.686 8.91497 137.046 8.94336H136.989C136.407 9.00013 135.767 9.22721 135.099 9.61042C133.607 10.4052 132.513 11.5122 131.802 12.9315C131.717 13.0876 131.773 13.2437 131.887 13.3715L122.138 12.0516C120.574 11.8529 119.338 11.6967 118.428 11.5974C121.782 10.6323 125.079 8.81562 128.291 6.16159C128.32 6.17578 128.348 6.18997 128.363 6.21836C128.519 6.34609 128.746 6.38867 128.945 6.34609C129.059 6.44544 129.201 6.51641 129.4 6.5306H129.301L129.258 6.50221C129.272 6.51641 129.286 6.51641 129.286 6.5306C129.272 6.5306 129.258 6.5164 129.258 6.5164C129.272 6.5306 129.301 6.5306 129.329 6.54479C129.67 6.77187 129.983 6.94219 130.295 7.05573C130.509 7.14088 130.864 7.22604 131.333 7.297C132.498 7.46732 133.408 7.39635 134.09 7.06992L134.119 7.05573C135.099 6.54479 135.526 5.9487 135.412 5.28164V5.36679C135.454 4.81328 134.929 4.28815 133.848 3.77721C133.848 3.76302 133.834 3.76302 133.82 3.76302C134.119 3.26627 134.246 2.74114 134.218 2.17344V2.14505C134.047 0.952866 133.422 0.385157 132.342 0.484503C132.086 0.498699 131.816 0.569662 131.532 0.669008C131.475 0.697396 131.432 0.711586 131.39 0.754165C130.608 1.30768 129.983 1.847 129.5 2.38633C128.746 1.79023 127.993 1.50638 127.226 1.53476C126.771 1.54896 126.43 1.59154 126.188 1.67669C126.074 1.71927 125.961 1.77604 125.875 1.847L125.975 1.79023C125.648 1.97474 125.421 2.17343 125.307 2.38633C125.25 2.49987 125.222 2.61341 125.222 2.71276C125.179 3.23789 125.435 3.81979 126.003 4.44427C126.231 4.67135 126.472 4.89844 126.742 5.09713C126.828 5.1681 127.055 5.32422 127.382 5.53711C123.417 8.80143 119.38 10.7174 115.273 11.2852C113.965 11.2 112.189 11.1716 109.929 11.1858C111.692 10.4478 113.056 9.70977 114.051 8.94336L114.065 8.92917C115.444 7.75117 115.927 6.81445 115.529 6.1332L115.515 6.11901C115.003 5.33841 113.88 5.25325 112.146 5.87773L112.089 5.90612C110.1 6.85703 108.096 8.53177 106.078 10.9587C105.936 10.9587 105.793 10.9871 105.694 11.0723C105.609 11.129 105.566 11.1858 105.538 11.2568C103.747 11.3419 100.663 11.64 96.2712 12.1651H96.2428C91.1548 12.9883 86.5358 13.9108 82.4142 14.9327C82.1016 15.0036 81.9168 15.2733 82.0163 15.5146C82.1158 15.77 82.4569 15.912 82.7695 15.8268C85.4414 15.174 88.3123 14.5637 91.3822 13.9818C91.3395 14.1095 91.3395 14.2372 91.3964 14.3792C91.5101 14.6346 92.0075 15.2307 92.8745 16.1533V16.1674C93.315 16.6216 93.7983 17.0048 94.3241 17.3029V17.3171C94.9637 17.6719 95.6316 17.9557 96.2996 18.1686H96.3423C97.195 18.3815 97.8772 18.3957 98.3746 18.2112L98.403 18.197C99.3268 17.7996 99.4832 17.1467 98.8578 16.2668C98.6304 15.9404 98.2751 15.5714 97.7919 15.1598L97.7635 15.1456C96.6549 14.3082 95.4327 13.7547 94.1251 13.4992C94.8926 13.3573 95.6743 13.2296 96.4702 13.1018C96.7544 13.0592 97.0387 13.0309 97.3087 13.0025C97.394 13.1018 97.5361 13.1728 97.7066 13.187C100.464 13.4992 103.164 14.4643 105.822 16.0823L110.256 19.1479C110.199 19.2047 110.157 19.2615 110.142 19.3324C110.114 19.446 110.086 19.5169 110.071 19.5595C109.801 19.9143 109.617 20.184 109.531 20.3685C109.403 20.6098 109.29 20.8794 109.19 21.1633C109.005 21.7026 109.005 22.1852 109.219 22.5967L109.233 22.6109C109.588 23.2354 110.1 23.6186 110.768 23.7464C111.379 23.8741 111.962 23.647 112.53 23.0793C113.084 23.576 113.681 23.9734 114.363 24.2573L114.406 24.2715C115.756 24.7682 116.78 24.7398 117.49 24.2005C118.343 23.5193 118.471 22.6677 117.86 21.66L117.845 21.6316C117.447 21.0355 116.964 20.553 116.41 20.184C116.581 20.0421 116.708 19.8859 116.794 19.744C117.192 19.0344 116.723 18.4525 115.415 18.0125C115.373 17.9983 115.33 17.9841 115.287 17.9841C113.937 17.757 112.573 17.9273 111.18 18.4809C111.166 18.4809 111.151 18.495 111.137 18.5092L106.604 15.3585L106.575 15.3443C104.5 14.0811 102.397 13.187 100.251 12.676C103.591 12.3212 105.737 12.1509 106.703 12.1793H106.746C109.73 12.1225 112.104 12.1225 113.866 12.1651C113.994 12.2928 114.179 12.3638 114.378 12.3354C114.705 12.3212 115.031 12.2786 115.358 12.2361C115.77 12.2645 116.126 12.2928 116.424 12.3354C116.467 12.3354 116.509 12.3354 116.538 12.3354H116.524C116.751 12.3496 118.087 12.5057 120.517 12.8038C120.489 12.8605 120.446 12.9173 120.418 12.9741V12.9883C120.318 13.2721 120.389 13.6695 120.631 14.1805C120.915 14.8475 121.271 15.4294 121.711 15.9404L121.725 15.9546C122.621 16.9197 123.559 17.4164 124.568 17.4448C124.596 17.4448 124.639 17.4448 124.667 17.4306C125.392 17.3596 125.819 17.0048 125.946 16.3803V16.3661C126.06 15.7559 125.946 15.1881 125.648 14.6488L125.634 14.6346C125.435 14.3082 125.151 14.0102 124.753 13.7547C124.582 13.6411 124.269 13.4708 123.8 13.2437L126.856 13.6553C126.899 13.7405 126.956 13.8256 127.055 13.8824C129.144 15.0178 130.295 15.6849 130.494 15.8836C130.48 15.8694 130.466 15.841 130.452 15.8126C130.48 15.8694 130.523 15.9404 130.594 15.9829C131.66 16.7919 133.351 18.3531 135.653 20.6807L135.682 20.7091L135.668 20.6949C136.407 21.3478 137.089 21.8871 137.714 22.3271C138.666 23.0083 140.145 23.7747 142.177 24.6405C141.651 25.3501 141.338 25.8611 141.267 26.1449C141.083 26.6559 141.083 27.1242 141.296 27.55C141.822 28.7422 142.731 29.168 144.039 28.8131C144.28 28.7564 144.536 28.657 144.806 28.5293C144.891 28.4867 144.948 28.4299 144.991 28.3732C146.568 29.1396 147.904 29.1538 148.999 28.4016C149.041 28.3874 149.07 28.359 149.084 28.3448C150.079 27.3229 149.951 26.301 148.7 25.2934C148.686 25.2792 148.658 25.265 148.643 25.2508C147.393 24.4986 145.972 24.1296 144.38 24.1154C144.579 23.9876 144.764 23.8741 144.948 23.8031C145.36 23.6186 145.801 23.5335 146.298 23.5193C146.739 23.5051 147.18 23.6328 147.592 23.8883C147.791 24.016 147.876 24.1154 147.819 24.1863C147.677 24.4276 147.791 24.7115 148.089 24.825C148.388 24.9385 148.757 24.8534 148.899 24.6121C149.24 24.0728 149.056 23.5902 148.331 23.1503C147.691 22.7529 146.995 22.5542 146.27 22.5684C145.574 22.5825 144.948 22.7245 144.366 22.9658C143.925 23.1645 143.456 23.4767 142.959 23.9025C140.912 23.0367 139.434 22.2703 138.524 21.6174H138.51C137.927 21.2059 137.288 20.6949 136.577 20.0704C134.275 17.757 132.569 16.1816 131.461 15.3301C131.461 15.3159 131.447 15.3017 131.432 15.2875C131.233 15.103 130.537 14.663 129.357 13.996L134.602 14.7056C134.63 14.9185 134.815 15.0888 135.085 15.1314C135.611 15.2023 136.321 15.174 137.188 15.0604C137.572 15.1172 138.993 15.2733 141.48 15.5572C142.262 15.6991 143.825 15.7984 146.171 15.8836C146.185 15.9546 146.213 16.0255 146.27 16.0823C146.853 16.7352 147.663 17.3454 148.715 17.8706L148.686 17.8564C150.335 18.8215 151.855 19.5311 153.262 20.0137H153.277C154.911 20.553 156.403 20.9362 157.768 21.1633H157.796C159.388 21.3762 160.425 21.4046 160.923 21.2201C161.051 21.1633 161.136 21.1065 161.221 21.0355C161.506 20.851 161.619 20.6098 161.548 20.2975C161.506 20.113 161.378 19.9143 161.179 19.7014C160.951 19.4602 160.624 19.1905 160.17 18.8641L160.184 18.8783C159.26 18.1686 157.725 17.3596 155.593 16.4655C155.224 16.3094 154.868 16.1674 154.542 16.0397C155.025 16.0397 155.508 16.0397 155.977 16.0255H155.991C157.725 15.9687 159.388 15.8552 160.951 15.6991H160.966C163.424 15.4152 165.94 14.8759 168.484 14.0953C168.598 14.365 168.782 14.6204 169.052 14.8617L169.01 14.8333C170.317 16.2526 171.838 16.9906 173.586 17.0332C173.629 17.0332 173.657 17.0332 173.7 17.0332C174.24 16.9622 174.652 16.8345 174.908 16.6216C175.093 16.4655 175.192 16.2668 175.206 16.0539C175.206 15.9829 175.206 15.9262 175.192 15.8694C175.178 15.7559 175.135 15.6423 175.064 15.5146C175.05 15.5004 175.036 15.472 175.021 15.4578C174.737 15.1172 174.297 14.805 173.7 14.5211C175.007 14.3508 176.102 14.0102 176.997 13.4566C178.106 12.8038 178.631 11.9948 178.575 11.0297ZM154.755 10.6181C154.726 10.76 154.57 10.8594 154.328 10.902C153.746 10.9445 153.078 10.8878 152.353 10.7033C151.983 10.5897 151.656 10.4762 151.372 10.3484C151.472 10.3484 151.557 10.3626 151.642 10.3484C152.481 10.2633 153.291 10.0646 154.058 9.76654C154.058 9.89427 154.115 10.0362 154.257 10.1214C154.613 10.3626 154.783 10.5187 154.755 10.6181ZM153.206 5.63646C153.66 5.45195 154.101 5.46614 154.542 5.69323C154.925 5.97708 155.124 6.37448 155.153 6.88541C155.082 7.6944 154.556 8.36146 153.618 8.88659C152.936 9.15625 152.225 9.34075 151.472 9.41172H151.443C151.259 9.4401 151.031 9.38333 150.733 9.2556C150.988 7.50989 151.813 6.30351 153.206 5.63646ZM149.098 6.99896C149.112 6.9138 149.212 6.87122 149.382 6.84284C149.596 6.81445 149.894 6.85703 150.264 6.97057C149.937 7.52408 149.724 8.17695 149.581 8.90078C149.482 8.77304 149.397 8.6595 149.354 8.57435V8.56015C149.255 8.43242 149.198 8.2905 149.141 8.14857C149.027 7.70859 148.999 7.33958 149.098 6.99896ZM133.237 4.5862C133.905 4.89843 134.232 5.13971 134.218 5.32422C134.218 5.3526 134.218 5.38099 134.218 5.40937C134.275 5.67904 134.019 5.97708 133.465 6.26094C133.038 6.45963 132.413 6.48802 131.56 6.37448C131.205 6.31771 130.963 6.26094 130.85 6.21836L130.821 6.20416C130.622 6.11901 130.395 6.00546 130.139 5.84935C130.935 5.86354 131.674 5.65065 132.356 5.21068H132.37C132.683 4.99779 132.953 4.78489 133.195 4.55781C133.209 4.55781 133.223 4.572 133.237 4.5862ZM132.129 1.50638C132.257 1.4638 132.37 1.43541 132.47 1.42122C132.754 1.40703 132.939 1.67669 133.01 2.23021C133.053 3.08177 132.584 3.81979 131.603 4.47265C130.963 4.88424 130.253 4.98359 129.471 4.79909C129.571 3.81979 130.452 2.72695 132.129 1.50638ZM127.609 4.44427H127.595L127.581 4.43008C127.353 4.25976 127.154 4.07526 126.984 3.87656C126.572 3.43659 126.387 3.06758 126.43 2.76953V2.74114C126.444 2.69856 126.529 2.64179 126.671 2.55664C126.685 2.55664 126.7 2.54245 126.714 2.52825C126.799 2.49987 126.984 2.48568 127.254 2.48568H127.282C127.723 2.47148 128.192 2.67018 128.718 3.11015C128.76 3.13854 128.817 3.16692 128.874 3.18112C128.505 3.73463 128.306 4.27396 128.263 4.79909C128.249 4.81328 128.235 4.82747 128.206 4.84166C127.879 4.62877 127.666 4.48685 127.609 4.44427ZM92.5476 14.1947C92.5476 14.223 92.5334 14.2514 92.5334 14.2798C92.5334 14.2514 92.5334 14.223 92.5476 14.1947ZM97.8061 16.7352C98.0335 17.0474 98.0335 17.2603 97.8345 17.3596C97.6214 17.4306 97.2518 17.4022 96.726 17.2745C96.1433 17.1042 95.589 16.8629 95.0347 16.5506C94.6084 16.2952 94.2104 15.9687 93.8267 15.5855C93.2298 14.9469 92.8318 14.4927 92.6471 14.2372C92.7039 14.2514 92.7608 14.2798 92.8176 14.2798C94.3099 14.365 95.6743 14.8901 96.925 15.8268C97.3371 16.1674 97.6214 16.4655 97.8061 16.7352ZM111.706 22.3697C111.407 22.7103 111.194 22.8664 111.066 22.838L111.052 22.8238C110.768 22.7812 110.526 22.5826 110.327 22.2419C110.228 22.029 110.242 21.7452 110.356 21.4187V21.4046C110.441 21.1633 110.54 20.9362 110.64 20.7233L110.654 20.7091C110.711 20.5956 110.825 20.4111 111.009 20.1556C111.024 20.553 111.066 20.9078 111.151 21.2059C111.251 21.5181 111.393 21.8303 111.606 22.1284L111.62 22.1568C111.677 22.2135 111.72 22.2561 111.763 22.3129C111.748 22.3413 111.72 22.3413 111.706 22.3697ZM116.637 23.5193C116.339 23.7605 115.756 23.718 114.918 23.4199C114.051 23.0509 113.298 22.469 112.658 21.66C112.502 21.4471 112.388 21.22 112.331 21.0072V20.993C112.232 20.6523 112.189 20.2124 112.217 19.673V19.6589C112.914 19.7866 113.383 19.9001 113.624 19.9853L113.454 19.8859L113.639 19.9853C114.136 20.1698 114.662 20.3827 115.202 20.6523C115.813 20.9646 116.339 21.4329 116.78 22.0716C117.135 22.6819 117.092 23.1645 116.637 23.5193ZM114.989 18.9066C115.515 19.0911 115.756 19.2473 115.699 19.3608C115.657 19.4176 115.586 19.4885 115.486 19.5737C115.458 19.6021 115.444 19.6305 115.415 19.6589C114.989 19.4602 114.562 19.2756 114.136 19.1337C114.136 19.1195 114.136 19.1195 114.136 19.1195C114.122 19.1195 114.122 19.1195 114.122 19.1195C113.937 19.0486 113.667 18.9776 113.298 18.8924C113.866 18.8215 114.434 18.8215 114.989 18.9066ZM112.686 6.7293C113.695 6.37448 114.278 6.30351 114.434 6.54479C114.605 6.84284 114.193 7.42474 113.198 8.2763C112.274 8.98594 110.952 9.69557 109.247 10.4052C108.565 10.6323 108.011 10.8168 107.57 10.9303C109.304 8.92917 111.009 7.53828 112.686 6.7293ZM143.655 27.919C143.101 28.0609 142.689 27.8339 142.418 27.2236V27.2094C142.305 26.9823 142.305 26.7126 142.418 26.3862L142.433 26.3578C142.461 26.2443 142.575 26.0598 142.731 25.8043C142.944 26.5139 143.399 27.1668 144.096 27.7487C143.939 27.8197 143.783 27.8764 143.655 27.919ZM148.174 27.7203C147.521 28.1319 146.654 28.0751 145.574 27.5358C144.479 26.8404 143.897 26.0314 143.811 25.0805C143.925 25.0805 144.039 25.0663 144.152 25.0663C144.238 25.1372 144.337 25.194 144.465 25.2224L144.707 25.265C144.92 25.2934 145.119 25.2366 145.261 25.123C146.213 25.2366 147.08 25.5204 147.876 25.9888C148.587 26.5707 148.686 27.1526 148.174 27.7203ZM132.925 13.2721C133.55 12.0374 134.502 11.0723 135.781 10.391L135.796 10.3768C136.307 10.093 136.748 9.92266 137.117 9.89427C137.387 9.88008 137.544 9.89427 137.615 9.93685C137.743 10.4904 137.245 11.2284 136.108 12.1651C134.829 13.0592 133.721 13.5134 132.797 13.4992C132.797 13.4992 132.783 13.4992 132.768 13.4992L132.683 13.485C132.783 13.4283 132.868 13.3715 132.925 13.2721ZM123.985 14.4927C124.241 14.6488 124.426 14.8333 124.554 15.032C124.753 15.4152 124.824 15.8126 124.767 16.2242C124.724 16.3803 124.653 16.4655 124.539 16.4939C123.957 16.4513 123.346 16.0965 122.706 15.401C122.337 14.9611 122.01 14.4501 121.768 13.8682L121.754 13.8398C121.612 13.5276 121.541 13.3289 121.583 13.2296C121.583 13.2437 121.569 13.2437 121.569 13.2579C121.597 13.2296 121.612 13.187 121.626 13.1444C121.654 13.187 121.683 13.2438 121.725 13.2721C121.839 13.3715 121.981 13.4566 122.166 13.556L122.209 13.5844C123.175 14.0385 123.758 14.3366 123.957 14.4785L123.985 14.4927ZM159.345 19.5595L159.374 19.5737C159.757 19.8434 160.042 20.0704 160.212 20.2691C160.255 20.3117 160.283 20.3401 160.312 20.3827C159.985 20.4395 159.217 20.3969 158.009 20.2266C156.73 20.0137 155.309 19.6589 153.746 19.1479C152.424 18.6937 150.974 18.0125 149.397 17.1042L149.368 17.0758C148.672 16.721 148.089 16.3378 147.634 15.9262C148.217 15.9404 148.814 15.9546 149.454 15.9687C150.065 15.9829 150.662 15.9971 151.259 16.0113C151.287 16.0113 151.33 16.0255 151.372 16.0255H151.386C152.197 16.1958 153.405 16.6216 155.025 17.3029H155.039C157.057 18.1544 158.493 18.9066 159.345 19.5595ZM168.143 10.0504H168.157C168.342 9.78073 168.498 9.6388 168.612 9.62461C168.654 9.62461 168.683 9.62461 168.711 9.61042C168.839 9.58203 168.953 9.6388 169.067 9.75234C169.237 10.0078 169.308 10.2633 169.294 10.5471C169.294 10.5755 169.294 10.5897 169.294 10.6181V10.6039C169.294 10.76 169.123 11.1858 168.796 11.9238C168.796 11.9238 168.796 11.938 168.796 11.9522C168.654 12.1651 168.569 12.378 168.484 12.5767C168.342 12.2077 168.171 11.6684 167.972 10.9587C167.901 10.6039 167.958 10.3059 168.143 10.0504ZM173.984 15.9404C173.984 15.9546 173.998 15.9687 173.998 15.9829C173.941 16.0255 173.799 16.0539 173.586 16.0823C172.321 16.0397 171.184 15.4862 170.175 14.4501C170.587 14.5353 171.056 14.5921 171.611 14.6062C171.667 14.7482 171.781 14.8617 171.966 14.9185C172.989 15.2307 173.657 15.5714 173.984 15.9404ZM176.272 12.6902L176.258 12.7044C175.391 13.2438 174.24 13.5702 172.833 13.6695C171.184 13.7121 170.161 13.5986 169.777 13.3005C169.763 13.2579 169.763 13.2154 169.749 13.1728C169.706 13.116 169.663 13.0592 169.592 13.0167C169.678 12.676 169.877 12.3212 170.189 11.9096C172.094 9.99362 173.998 9.31237 175.874 9.89427C176.77 10.1781 177.267 10.5755 177.381 11.1006C177.395 11.7251 177.025 12.2503 176.272 12.6902ZM167.105 9.56784C167.105 9.58203 167.105 9.58203 167.105 9.58203C167.105 9.58203 167.105 9.58203 167.091 9.58203L167.105 9.56784ZM151.614 10.3484C151.628 10.3484 151.628 10.3484 151.642 10.3484H151.614ZM131.432 15.3017C131.432 15.2875 131.432 15.2875 131.432 15.2875V15.3017ZM109.531 20.3685C109.531 20.3685 109.531 20.3685 109.531 20.3827V20.3685ZM146.27 22.5684C146.256 22.5684 146.256 22.5684 146.256 22.5684H146.27ZM141.281 27.5358C141.281 27.5358 141.281 27.5358 141.296 27.55L141.281 27.5358ZM141.267 26.1307V26.1449L141.253 26.1591L141.267 26.1307ZM130.281 7.05573C130.281 7.05573 130.281 7.05573 130.295 7.05573H130.281ZM126.728 5.09713H126.742C126.742 5.09713 126.742 5.09713 126.742 5.11133L126.728 5.09713ZM127.24 1.53476C127.24 1.53476 127.24 1.53476 127.226 1.53476H127.24ZM125.222 2.68437C125.222 2.69856 125.222 2.71276 125.222 2.71276C125.222 2.72695 125.222 2.74114 125.222 2.75534V2.68437ZM96.2996 18.1686C96.2996 18.1686 96.2996 18.1686 96.3138 18.1686H96.2996ZM124.767 13.7689C124.753 13.7689 124.753 13.7689 124.753 13.7547L124.767 13.7689ZM135.099 9.61042C135.085 9.61042 135.085 9.61042 135.085 9.61042H135.099ZM137.06 8.94336H137.046C137.032 8.94336 137.032 8.94336 137.032 8.94336H137.06Z" fill="#58684E"/>
    <mask id="mask0_1_3" style="mask-type:luminance" maskUnits="userSpaceOnUse" x="0" y="0" width="91" height="31">
        <path d="M0.46582 0.300003H90.259V30.1757H0.46582V0.300003Z" fill="white"/>
    </mask>
    <g mask="url(#mask0_1_3)">
        <path d="M87.3029 19.2898V19.3324C87.1465 20.2266 86.3933 20.8794 85.0573 21.3052L85.0431 21.3194C83.0392 21.9155 81.1063 21.5181 79.2161 20.0846C79.1734 20.4111 79.0455 20.7375 78.8466 21.0355C78.8323 21.0639 78.8181 21.0781 78.8039 21.0923C78.3491 21.5891 77.7806 21.7736 77.1127 21.6174L77.2121 21.6316C76.6721 21.5749 76.2173 21.2768 75.8336 20.7375C75.4925 20.2975 75.393 19.7724 75.5209 19.2047V19.1621V19.1763C75.8051 18.1402 76.0752 17.4164 76.3168 16.9764C74.0144 16.281 71.7546 15.8126 69.5233 15.5572C67.9884 15.401 66.3824 15.2875 64.6769 15.2449C63.2841 15.2307 61.7634 15.2307 60.1432 15.2591C59.1057 15.472 57.9119 15.5997 56.5475 15.6423C56.2917 15.6423 56.0643 15.5288 55.979 15.3443C53.0939 15.4294 51.2463 15.543 50.4362 15.6849L50.3936 15.6991C49.8535 15.7559 49.3703 15.8126 48.9439 15.8552C49.7824 16.0681 50.6068 16.3094 51.4026 16.5932C53.8898 17.4874 56.1638 18.5944 58.2672 19.8859C58.2814 19.8434 58.3098 19.815 58.3382 19.7866C58.8072 19.4176 59.5889 19.0628 60.669 18.7363L60.6975 18.7221C61.6071 18.495 62.4456 18.4099 63.213 18.4809H63.2557C64.0658 18.6086 64.5348 18.9492 64.6627 19.5169C64.7764 19.9711 64.4779 20.4395 63.7673 20.922C63.7105 20.9504 63.6394 20.9788 63.5684 21.0072C64.4922 21.6458 65.0038 22.4406 65.0891 23.3915V23.4341C65.0606 24.2573 64.7053 24.896 64.0374 25.3643C64.0231 25.3785 63.9947 25.3927 63.9805 25.4069C63.1136 25.8611 62.2324 25.8895 61.3512 25.5062H61.337C60.6264 25.1656 60.0437 24.7256 59.5747 24.1863C58.9352 24.3992 58.3809 24.4702 57.9119 24.4134H57.8977C57.187 24.2999 56.7749 24.0018 56.647 23.5193C56.5191 23.0509 56.5333 22.5258 56.7038 21.9439V21.9297C56.7749 21.7168 56.8744 21.5181 57.0023 21.3336C57.1018 21.1633 57.2723 20.9362 57.5281 20.624C55.51 19.3892 53.3071 18.3247 50.9052 17.459C49.5835 16.9906 48.1907 16.6216 46.7268 16.3661L46.7126 16.3519C46.4283 16.3094 46.1725 16.2526 45.9167 16.2242L43.998 16.4797C44.5381 16.7352 45.0924 17.0616 45.6609 17.459L45.6893 17.4874C47.1532 18.6796 47.7501 19.7298 47.5085 20.6098L47.4943 20.6523C47.4801 20.7091 47.4374 20.7659 47.409 20.8227C47.3521 20.9078 47.2811 20.9788 47.1958 21.0497C46.8831 21.291 46.4141 21.4046 45.7746 21.3762H45.7177C45.135 21.3194 44.4955 21.0923 43.8275 20.7091C42.3352 19.9143 41.2409 18.8073 40.5302 17.388C40.445 17.2319 40.5018 17.0758 40.6155 16.948L30.8659 18.268C29.3025 18.4667 28.0661 18.6228 27.1565 18.7363C30.5106 19.6872 33.8078 21.5039 37.034 24.1579C37.0482 24.1437 37.0767 24.1296 37.1051 24.1012C37.2472 23.9734 37.4746 23.9309 37.6736 23.9734C37.7873 23.8741 37.9294 23.8031 38.1284 23.7889H38.0289L37.9862 23.8173C38.0005 23.8031 38.0147 23.8031 38.0289 23.7889C38.0005 23.7889 38.0005 23.8031 37.9862 23.8031C38.0005 23.7889 38.0289 23.7889 38.0573 23.7747C38.3984 23.5477 38.7253 23.3773 39.0237 23.2638C39.2369 23.1786 39.5922 23.0935 40.0612 23.0225C41.2266 22.8522 42.1504 22.9232 42.8326 23.2496L42.8468 23.2638C43.8275 23.7747 44.2539 24.3708 44.1402 25.0379V24.9527C44.1828 25.5062 43.6569 26.0456 42.5768 26.5423C42.5768 26.5565 42.5626 26.5565 42.5484 26.5565C42.8468 27.0533 42.9748 27.5784 42.9463 28.1461V28.1745C42.7758 29.3667 42.1647 29.9344 41.0703 29.835C40.8145 29.8208 40.5445 29.7499 40.2602 29.6505C40.2034 29.6221 40.1607 29.6079 40.1181 29.5654C39.3364 29.0118 38.7111 28.4725 38.2279 27.9332C37.4888 28.5293 36.7214 28.8131 35.9539 28.7848C35.4991 28.7848 35.158 28.728 34.9164 28.6428C34.8027 28.6003 34.689 28.5435 34.6179 28.4725L34.7032 28.5293C34.3763 28.3448 34.1489 28.1461 34.0352 27.9332C33.9784 27.8197 33.95 27.7061 33.95 27.6068C33.9073 27.0816 34.1631 26.4997 34.7316 25.8753C34.959 25.6482 35.2006 25.4211 35.4707 25.2224C35.5559 25.1514 35.7833 24.9953 36.1244 24.7824C32.145 21.5181 28.1087 19.6021 24.0014 19.0344C22.6938 19.1195 20.9173 19.1479 18.6575 19.1337C20.4199 19.8717 21.7842 20.6098 22.7791 21.3762L22.8075 21.3904C24.1719 22.5684 24.6551 23.5051 24.2572 24.1863L24.243 24.2005C23.7313 24.9811 22.6086 25.0663 20.8747 24.4418L20.8178 24.4134C18.8281 23.4625 16.8242 21.7878 14.806 19.3608C14.6639 19.3608 14.5218 19.3324 14.4223 19.2473C14.3512 19.1905 14.2944 19.1337 14.2659 19.0628C12.4752 18.9776 9.39114 18.6796 4.99954 18.1544H4.97111C3.42197 17.899 1.91547 17.6435 0.46582 17.3738V15.4578C0.707432 15.1456 1.09116 14.7198 1.6028 14.1663V14.1521C2.04338 13.6979 2.5266 13.3147 3.05246 13.0167V13.0025C3.69201 12.6477 4.35998 12.3638 5.02796 12.1509H5.0706C5.92333 11.938 6.60553 11.9238 7.10296 12.1083L7.13138 12.1225C8.05518 12.5199 8.21151 13.1728 7.58617 14.0527C7.35878 14.3792 7.00347 14.7482 6.52025 15.1598L6.49183 15.174C5.38327 16.0113 4.16102 16.5648 2.85348 16.8203C3.62095 16.9622 4.40262 17.09 5.19851 17.2177C5.48276 17.2603 5.767 17.2887 6.03704 17.3171C6.13652 17.2177 6.26443 17.1467 6.43498 17.1325C9.19216 16.8203 11.8925 15.8552 14.5502 14.2372L18.9844 11.1716C18.9276 11.1148 18.8849 11.0581 18.8707 10.9871C18.8423 10.8736 18.8139 10.8026 18.7997 10.76C18.5296 10.4052 18.3449 10.1355 18.2596 9.95104C18.1317 9.70976 18.018 9.4401 17.9185 9.15625C17.7337 8.61692 17.7337 8.13437 17.9469 7.72278L17.9611 7.70859C18.3164 7.08411 18.8281 6.70091 19.4961 6.57317C20.1072 6.44544 20.6899 6.67252 21.2584 7.24023C21.8127 6.74349 22.4096 6.34609 23.0918 6.06224L23.1344 6.04804C24.4846 5.5513 25.5079 5.57969 26.2185 6.11901C27.0712 6.80026 27.1991 7.65182 26.588 8.6595L26.5738 8.68789C26.1758 9.28398 25.6926 9.76653 25.1383 10.1355C25.3089 10.2775 25.4368 10.4336 25.5221 10.5755C25.92 11.2852 25.451 11.8671 24.1435 12.307C24.1008 12.3212 24.0582 12.3354 24.0156 12.3354C22.6654 12.5625 21.301 12.3922 19.9082 11.8387C19.894 11.8387 19.8798 11.8245 19.8656 11.8103L15.3319 14.9611L15.3034 14.9753C13.2284 16.2384 11.125 17.1325 8.97898 17.6435C12.3189 17.9983 14.4649 18.1686 15.4314 18.1402H15.474C18.4586 18.197 20.832 18.197 22.5943 18.1544C22.7223 18.0267 22.907 17.9557 23.1202 17.9841C23.4329 17.9983 23.7598 18.0409 24.0866 18.0835C24.4988 18.0551 24.8541 18.0267 25.1668 17.9841C25.1952 17.9841 25.2378 17.9841 25.2663 17.9841H25.252C25.4794 17.9699 26.8154 17.8138 29.2457 17.5158C29.2173 17.459 29.1746 17.4022 29.1462 17.3454C29.0467 17.0474 29.1178 16.65 29.3594 16.1391C29.6436 15.4862 29.9989 14.8901 30.4395 14.3792L30.4537 14.365C31.3491 13.3999 32.2871 12.9031 33.2962 12.8747C33.3246 12.8747 33.3673 12.8747 33.3957 12.8889C34.1205 12.9599 34.5469 13.3147 34.6748 13.9392L34.689 13.9534C34.7885 14.5637 34.6748 15.1314 34.3763 15.6707L34.3621 15.6849C34.1631 16.0113 33.8789 16.3094 33.481 16.5648C33.3104 16.6784 32.9977 16.8487 32.5287 17.0758L35.5844 16.6642C35.627 16.579 35.6839 16.4939 35.7833 16.4371C37.8725 15.3017 39.0237 14.6346 39.2227 14.4359C39.2085 14.4501 39.1943 14.4785 39.1801 14.5069C39.2085 14.4501 39.2511 14.3792 39.3222 14.3366C40.3881 13.5276 42.0794 11.9664 44.3818 9.6388L44.4102 9.61041L44.396 9.62461C45.135 8.97174 45.8172 8.43242 46.4426 7.99244C47.3948 7.31119 48.8729 6.54479 50.9052 5.67903C50.3794 4.9694 50.0667 4.45846 49.9956 4.17461C49.8109 3.66367 49.8109 3.19531 50.024 2.76953C50.5499 1.57734 51.4595 1.15156 52.767 1.50638C53.0086 1.56315 53.2644 1.6625 53.5345 1.79023C53.6198 1.83281 53.6766 1.88958 53.7192 1.94635C55.2968 1.17995 56.6328 1.16575 57.7413 1.91796C57.7697 1.93216 57.7982 1.96054 57.8124 1.97474C58.8215 2.99661 58.6793 4.01849 57.4286 5.02617C57.4144 5.04036 57.386 5.05455 57.3718 5.06875C56.1211 5.82096 54.6999 6.18997 53.1081 6.20416C53.3071 6.3319 53.4918 6.44544 53.6766 6.5164C54.0888 6.70091 54.5293 6.78606 55.0268 6.80026C55.4674 6.81445 55.9079 6.68671 56.3201 6.43125C56.5333 6.30351 56.6043 6.20416 56.5475 6.1332C56.4054 5.89192 56.5191 5.60807 56.8175 5.49453C57.116 5.38099 57.4855 5.46614 57.6276 5.70742C57.9687 6.24674 57.784 6.72929 57.0591 7.16927C56.4196 7.56666 55.7232 7.76536 54.9983 7.75117C54.3019 7.73698 53.6766 7.59505 53.0939 7.35377C52.6533 7.15508 52.1843 6.84283 51.6869 6.41705C49.6403 7.28281 48.1622 8.04921 47.2527 8.70208H47.2384C46.6557 9.11367 46.0162 9.62461 45.3056 10.2491C43.0032 12.5625 41.2977 14.1379 40.1891 14.9894C40.1891 15.0036 40.1749 15.0178 40.1607 15.032C39.9618 15.2165 39.2654 15.6565 38.0857 16.3236L43.3301 15.6139C43.3585 15.401 43.5432 15.2307 43.8133 15.1881C44.3391 15.1172 45.0498 15.1456 45.9167 15.2591C46.3004 15.2023 47.7217 15.0462 50.2088 14.7624C50.9905 14.6204 52.5538 14.5211 54.9131 14.4359C54.9131 14.365 54.9415 14.294 54.9983 14.2372C55.5811 13.5844 56.3911 12.9741 57.4429 12.449L57.4144 12.4631C59.0631 11.498 60.598 10.7884 61.9908 10.3059H62.005C63.6394 9.76653 65.1459 9.38333 66.5103 9.15625H66.5245C68.1163 8.94335 69.168 8.91497 69.6512 9.09948C69.7791 9.15625 69.8644 9.21302 69.9497 9.28398C70.2339 9.46849 70.3476 9.70976 70.2766 10.022C70.2339 10.2065 70.106 10.4052 69.907 10.6181C69.6796 10.8594 69.3528 11.129 68.898 11.4555L68.9122 11.4413C67.9884 12.1509 66.4534 12.9599 64.3216 13.854C63.9521 14.0102 63.5968 14.1521 63.2699 14.2798C63.7531 14.2798 64.2363 14.2798 64.7053 14.294H64.7338C66.4534 14.3508 68.1163 14.4643 69.6796 14.6204H69.6938C72.1526 14.9043 74.6681 15.4436 77.2121 16.2242C77.3258 15.9546 77.5106 15.6991 77.7806 15.4578L77.7522 15.4862C79.0455 14.0669 80.5662 13.3289 82.3144 13.2863C82.357 13.2863 82.3854 13.2863 82.4281 13.2863C82.9823 13.3573 83.3803 13.485 83.6361 13.6979C83.8209 13.854 83.9203 14.0527 83.9346 14.2656C83.9346 14.3366 83.9346 14.3934 83.9203 14.4501C83.9061 14.5637 83.8635 14.6772 83.7924 14.8049C83.7782 14.8191 83.764 14.8475 83.7498 14.8617C83.4655 15.2023 83.025 15.5146 82.4281 15.7984C83.7356 15.9687 84.8441 16.3094 85.7253 16.8629C86.8339 17.5157 87.3597 18.3247 87.3029 19.2898ZM52.5396 5.23906C52.6533 5.23906 52.767 5.25325 52.8807 5.25325C52.966 5.18229 53.0655 5.12552 53.1934 5.09713L53.435 5.05455C53.6482 5.02617 53.8472 5.08294 53.9893 5.19648C54.9415 5.08294 55.8084 4.79908 56.6043 4.33073C57.3149 3.74883 57.4144 3.16692 56.9028 2.59921C56.249 2.18763 55.3821 2.2444 54.3019 2.78372C53.2076 3.47916 52.6249 4.28815 52.5396 5.23906ZM51.1468 3.93333L51.161 3.96171C51.1895 4.07526 51.3032 4.25976 51.4737 4.51523C51.6727 3.8056 52.1275 3.15273 52.8239 2.57083C52.6675 2.49987 52.5254 2.4431 52.3833 2.40052C51.829 2.25859 51.4169 2.48567 51.1468 3.09596V3.11015C51.0331 3.33724 51.0331 3.6069 51.1468 3.93333ZM24.4277 10.9587C24.3851 10.9019 24.314 10.831 24.2145 10.7458C24.1861 10.7174 24.1719 10.6891 24.1435 10.6607C23.7171 10.8594 23.2907 11.0439 22.8644 11.1858C22.8644 11.2 22.8644 11.2 22.8644 11.2H22.8502C22.6654 11.271 22.3954 11.3419 22.0259 11.4271C22.5943 11.498 23.1628 11.498 23.7171 11.4129C24.243 11.2284 24.4846 11.0723 24.4277 10.9587ZM20.9457 10.6465V10.6607C21.6421 10.5329 22.1111 10.4194 22.3527 10.3342L22.1822 10.4336L22.3669 10.3342C22.8786 10.1497 23.3902 9.93685 23.9303 9.66718C24.5414 9.35495 25.0673 8.88658 25.5079 8.24791C25.8632 7.63763 25.8205 7.15508 25.3657 6.80026C25.0673 6.55898 24.4988 6.60156 23.6461 6.89961C22.7791 7.26862 22.0259 7.85052 21.3863 8.6595C21.23 8.87239 21.1163 9.09948 21.0594 9.32656C20.9599 9.66718 20.9173 10.1072 20.9457 10.6465ZM19.0839 8.90078V8.91497C19.1692 9.15625 19.2687 9.38333 19.3682 9.59622L19.3824 9.61041C19.4392 9.72395 19.5529 9.90846 19.7377 10.1639C19.7519 9.76653 19.7945 9.41171 19.8798 9.11367C19.9793 8.80143 20.1214 8.48919 20.3346 8.19114L20.363 8.16276C20.4057 8.10599 20.4483 8.06341 20.4909 8.00664C20.4767 7.99244 20.4483 7.97825 20.4341 7.94987C20.1356 7.60924 19.9224 7.45312 19.7945 7.48151L19.7803 7.4957C19.4961 7.53828 19.2545 7.73698 19.0555 8.0776C18.956 8.29049 18.9702 8.57434 19.0839 8.90078ZM1.27592 16.1249C1.27592 16.0965 1.27592 16.0681 1.26171 16.0397C1.27592 16.0681 1.26171 16.0965 1.27592 16.1249ZM1.54595 16.0397C3.03824 15.9546 4.40262 15.4294 5.6533 14.4927C6.06546 14.1521 6.34971 13.854 6.53446 13.5844C6.76186 13.2721 6.76186 13.0592 6.56289 12.9599C6.3497 12.8889 5.98019 12.9173 5.45433 13.045C4.87163 13.2154 4.31735 13.4566 3.76307 13.7689C3.3367 14.0243 2.93876 14.3508 2.56924 14.734C1.95811 15.3727 1.57438 15.8268 1.37541 16.0823C1.43226 16.0681 1.4891 16.0397 1.54595 16.0397ZM17.9754 19.9143C17.2932 19.6872 16.7389 19.5027 16.2983 19.4034C18.0322 21.3904 19.7377 22.7812 21.4147 23.5902C22.4238 23.945 23.0065 24.016 23.1628 23.7747C23.3334 23.4767 22.9212 22.8948 21.9264 22.0432C21.0026 21.3336 19.6808 20.624 17.9754 19.9143ZM38.8674 24.4702C39.6633 24.456 40.4023 24.6689 41.0845 25.1089H41.0987C41.4114 25.3217 41.6814 25.5346 41.923 25.7617C41.9373 25.7617 41.9515 25.7475 41.9657 25.7333C42.6337 25.4211 42.9605 25.1798 42.9463 24.9953C42.9463 24.9669 42.9463 24.9385 42.9463 24.9102C43.0032 24.6405 42.7474 24.3566 42.1931 24.0586C41.7809 23.8599 41.1414 23.8315 40.2886 23.945C39.9333 24.0018 39.6917 24.0586 39.578 24.1012L39.5496 24.1154C39.3506 24.2005 39.1232 24.3141 38.8674 24.4702ZM38.1994 25.5204C38.2989 26.4997 39.1801 27.5926 40.8571 28.8131C40.985 28.8557 41.0987 28.8841 41.1982 28.8983C41.4825 28.9125 41.6672 28.6428 41.7383 28.0893C41.7809 27.2378 41.3119 26.4997 40.3313 25.8469C39.6917 25.4353 38.9811 25.3359 38.1994 25.5204ZM36.3092 25.8894C36.0818 26.0598 35.8828 26.2443 35.7123 26.443C35.3001 26.8829 35.1154 27.252 35.158 27.55V27.5784C35.1722 27.621 35.2575 27.6777 35.3996 27.7629C35.4138 27.7629 35.428 27.7771 35.4422 27.7913C35.5275 27.8197 35.7123 27.8339 35.9965 27.8339H36.0107C36.4513 27.848 36.9203 27.6493 37.4462 27.2094C37.4888 27.181 37.5457 27.1526 37.6025 27.1384C37.233 26.5849 37.034 26.0456 36.9914 25.5204C36.9772 25.5062 36.963 25.4921 36.9345 25.4779C36.6077 25.6907 36.3945 25.8327 36.3376 25.8753C36.3376 25.8753 36.3376 25.8753 36.3234 25.8753L36.3092 25.8894ZM30.937 16.7352C31.9034 16.281 32.4861 15.9829 32.6851 15.841L32.7135 15.8268C32.9693 15.6707 33.1541 15.4862 33.282 15.2875C33.4952 14.9043 33.5662 14.5069 33.4952 14.0953C33.4525 13.9392 33.3815 13.854 33.2678 13.8256C32.6851 13.8682 32.0739 14.223 31.4344 14.9185C31.0649 15.3585 30.7522 15.8694 30.4964 16.4513L30.4822 16.4797C30.34 16.7919 30.269 16.9906 30.3116 17.09C30.3116 17.0758 30.2974 17.0758 30.2974 17.0616C30.3258 17.09 30.34 17.1325 30.3543 17.1751C30.3827 17.1325 30.4111 17.0758 30.4537 17.0474C30.5674 16.948 30.7096 16.8629 30.8943 16.7635L30.937 16.7352ZM41.5251 16.8203H41.5109L41.4256 16.8345C41.5109 16.8913 41.5962 16.948 41.653 17.0474C42.2784 18.2822 43.2306 19.2473 44.5097 19.9285L44.5239 19.9427C45.0355 20.2266 45.4761 20.3969 45.8456 20.4253C46.1157 20.4395 46.272 20.4253 46.3431 20.3827C46.471 19.8292 45.9735 19.0911 44.8366 18.1544C43.5575 17.2603 42.4489 16.8061 41.5251 16.8203ZM60.1148 19.9711C60.2 19.9711 60.2853 19.9569 60.3706 19.9711C61.2091 20.0562 62.0192 20.2549 62.7867 20.553C62.7867 20.4253 62.8435 20.2833 62.9857 20.1982C63.341 19.9569 63.5115 19.8008 63.4831 19.7014C63.4547 19.5595 63.2983 19.4602 63.0567 19.4176C62.474 19.375 61.8202 19.446 61.0812 19.6163C60.7117 19.7298 60.3848 19.8575 60.1148 19.9711ZM59.461 21.0639C59.7168 22.8096 60.5411 24.016 61.9482 24.6831C62.3887 24.8676 62.8293 24.8534 63.2699 24.6263C63.6536 24.3424 63.8668 23.945 63.881 23.4341C63.81 22.6251 63.2983 21.9581 62.3461 21.4471C61.6639 21.1633 60.9533 20.9788 60.2 20.9078H60.1716C59.9869 20.8794 59.7595 20.9362 59.461 21.0639ZM57.8266 23.3206C57.855 23.4057 57.9403 23.4483 58.1108 23.4767C58.324 23.5051 58.6225 23.4625 58.992 23.349C58.6651 22.7954 58.4519 22.1426 58.324 21.4187C58.2103 21.5465 58.1251 21.66 58.0824 21.7452V21.7594C57.9971 21.8871 57.9261 22.029 57.8692 22.171C57.7555 22.6109 57.7271 22.9799 57.8266 23.3206ZM63.7531 13.0167H63.7673C65.7855 12.1651 67.2209 11.4129 68.0736 10.76L68.1021 10.7458C68.4858 10.4762 68.77 10.2491 68.9406 10.0504C68.9832 10.0078 69.0117 9.97942 69.0401 9.93685C68.7132 9.88007 67.9457 9.92266 66.7377 10.093C65.4586 10.3059 64.0374 10.6607 62.474 11.1716C61.1523 11.6258 59.7026 12.307 58.125 13.2154L58.0966 13.2437C57.4002 13.5986 56.8175 13.9818 56.3769 14.3934C56.9454 14.3792 57.5423 14.365 58.1819 14.3508C58.793 14.3366 59.4042 14.3224 59.9869 14.3082C60.0295 14.3082 60.0579 14.294 60.1006 14.294H60.1148C60.9249 14.1237 62.1329 13.6979 63.7531 13.0167ZM78.9034 15.8694C79.3156 15.7842 79.7988 15.7275 80.3388 15.7133C80.3957 15.5713 80.5094 15.4578 80.6942 15.401C81.7174 15.0888 82.3854 14.7482 82.7123 14.3792C82.7123 14.365 82.7265 14.3508 82.7265 14.3366C82.6697 14.294 82.5275 14.2656 82.3144 14.2372C81.0495 14.2798 79.9125 14.8333 78.9034 15.8694ZM78.0222 19.7014V19.7156C78.0222 19.5595 77.8517 19.1337 77.5248 18.3957C77.5248 18.3957 77.5248 18.3815 77.5248 18.3673C77.3969 18.1544 77.2974 17.9415 77.2121 17.7428C77.07 18.1118 76.8995 18.6512 76.7005 19.3608C76.6294 19.7156 76.6863 20.0137 76.8711 20.2691H76.8853C77.07 20.5388 77.2264 20.6807 77.3401 20.6949C77.3827 20.6949 77.4111 20.6949 77.4395 20.7091C77.5675 20.7375 77.6812 20.6807 77.7948 20.5672C77.9654 20.3117 78.0365 20.0562 78.0222 19.7724C78.0222 19.744 78.0222 19.7298 78.0222 19.7014ZM86.109 19.2189C86.1232 18.5944 85.7537 18.0693 85.0005 17.6293L84.9863 17.6151C84.1193 17.0758 82.9681 16.7493 81.5611 16.65C79.9125 16.6074 78.8892 16.721 78.5055 17.019C78.5055 17.0616 78.4912 17.1042 78.477 17.1467C78.4344 17.2035 78.3918 17.2603 78.3207 17.3029C78.406 17.6435 78.605 17.9983 78.9176 18.4099C80.8221 20.3259 82.7265 21.0072 84.6025 20.4253C85.4979 20.1414 85.9953 19.744 86.109 19.2189Z" fill="#58684E"/>
    </g>
    <path d="M359.383 13.4424C359.383 13.4566 359.383 13.4566 359.383 13.4566C359.369 13.4566 359.369 13.4566 359.369 13.4566L359.383 13.4424ZM360.961 11.0297V10.9871C360.804 10.093 360.051 9.4401 358.701 9.01432V9.00013C356.697 8.40404 354.75 8.80143 352.86 10.2349C352.831 9.90846 352.703 9.58203 352.504 9.28398C352.49 9.2556 352.476 9.24141 352.462 9.22721C352.007 8.73047 351.438 8.54596 350.756 8.70208L350.856 8.68789C350.33 8.74466 349.875 9.04271 349.491 9.58203C349.15 10.022 349.051 10.5471 349.164 11.1148L349.179 11.1574V11.1432C349.463 12.1793 349.719 12.9031 349.974 13.3431C347.672 14.0385 345.398 14.5069 343.181 14.7624C341.646 14.9185 340.026 15.032 338.335 15.0746C336.928 15.0888 335.421 15.0888 333.787 15.0604C332.749 14.8475 331.57 14.7198 330.205 14.6772C329.949 14.6772 329.722 14.7908 329.637 14.9753C326.752 14.8901 324.904 14.7766 324.094 14.6346L324.037 14.6204C323.511 14.5637 323.028 14.5069 322.587 14.4643C323.44 14.2514 324.264 14.0102 325.06 13.7263C327.547 12.8322 329.821 11.7251 331.911 10.4336C331.939 10.4762 331.953 10.5046 331.996 10.5329C332.465 10.902 333.232 11.2568 334.327 11.5832L334.355 11.5974C335.265 11.8245 336.103 11.9096 336.871 11.8387H336.913C337.709 11.7109 338.178 11.3703 338.32 10.8026C338.434 10.3484 338.136 9.88008 337.425 9.39752C337.368 9.36914 337.297 9.34075 337.226 9.31237C338.15 8.6737 338.661 7.87891 338.747 6.92799V6.88541C338.718 6.06224 338.363 5.42356 337.695 4.95521C337.667 4.94101 337.652 4.92682 337.624 4.91263C336.771 4.45846 335.89 4.43008 335.009 4.81328H334.995C334.284 5.1539 333.701 5.59388 333.232 6.1332C332.593 5.92031 332.039 5.84935 331.555 5.90612C330.845 6.01966 330.433 6.31771 330.305 6.80026C330.177 7.26862 330.191 7.79375 330.361 8.37565V8.38984C330.433 8.60273 330.532 8.80143 330.66 8.98594C330.759 9.15625 330.93 9.38333 331.172 9.69557C329.153 10.9303 326.965 11.9948 324.563 12.8605C323.241 13.3289 321.848 13.6979 320.384 13.9534L320.37 13.9676C320.086 14.0102 319.83 14.0669 319.574 14.0953L317.656 13.8398C318.196 13.5844 318.736 13.2579 319.319 12.8605L319.347 12.8322C320.811 11.64 321.408 10.5897 321.166 9.70976L321.152 9.66719C321.123 9.61042 321.095 9.55364 321.067 9.49687C321.01 9.41172 320.939 9.34075 320.853 9.26979C320.541 9.02852 320.072 8.91497 319.432 8.94336H319.375C318.793 9.00013 318.153 9.22721 317.471 9.61042C315.993 10.4052 314.899 11.5122 314.188 12.9315C314.103 13.0876 314.145 13.2437 314.273 13.3715L304.524 12.0516C302.96 11.8529 301.724 11.6967 300.814 11.5974C304.168 10.6323 307.451 8.81562 310.677 6.16159C310.706 6.17578 310.734 6.18997 310.749 6.21836C310.905 6.34609 311.132 6.38867 311.331 6.34609C311.431 6.44544 311.587 6.51641 311.786 6.5306H311.687L311.644 6.50221C311.658 6.51641 311.658 6.51641 311.672 6.5306C311.658 6.5306 311.644 6.5164 311.644 6.5164C311.658 6.5306 311.687 6.5306 311.715 6.54479C312.056 6.77187 312.369 6.94219 312.681 7.05573C312.895 7.14088 313.25 7.22604 313.719 7.297C314.87 7.46732 315.794 7.39635 316.476 7.06992L316.504 7.05573C317.485 6.54479 317.912 5.9487 317.798 5.28164V5.36679C317.84 4.81328 317.315 4.28815 316.234 3.77721C316.234 3.76302 316.22 3.76302 316.206 3.76302C316.504 3.26627 316.632 2.74114 316.604 2.17344V2.14505C316.433 0.952866 315.808 0.385157 314.728 0.484503C314.472 0.498699 314.202 0.569662 313.918 0.669008C313.861 0.697396 313.818 0.711586 313.762 0.754165C312.994 1.30768 312.369 1.847 311.885 2.38633C311.132 1.79023 310.379 1.50638 309.612 1.53476C309.157 1.54896 308.816 1.59154 308.574 1.67669C308.446 1.71927 308.347 1.77604 308.261 1.847L308.361 1.79023C308.02 1.97474 307.807 2.17343 307.693 2.38633C307.636 2.49987 307.608 2.61341 307.608 2.71276C307.565 3.23789 307.821 3.81979 308.389 4.44427C308.602 4.67135 308.858 4.89844 309.114 5.09713C309.214 5.1681 309.427 5.32422 309.768 5.53711C305.803 8.80143 301.766 10.7174 297.659 11.2852C296.351 11.2 294.561 11.1716 292.315 11.1858C294.063 10.4478 295.442 9.70977 296.437 8.94336L296.451 8.92917C297.83 7.75117 298.313 6.81445 297.915 6.1332L297.901 6.11901C297.389 5.33841 296.266 5.25325 294.532 5.87773L294.475 5.90612C292.486 6.85703 290.482 8.53177 288.464 10.9587C288.322 10.9587 288.179 10.9871 288.066 11.0723C287.995 11.129 287.952 11.1858 287.924 11.2568C286.133 11.3419 283.049 11.64 278.657 12.1651H278.629C273.527 12.9883 268.922 13.9108 264.8 14.9327C264.473 15.0036 264.303 15.2733 264.402 15.5146C264.502 15.77 264.843 15.912 265.156 15.8268C267.813 15.174 270.698 14.5637 273.768 13.9818C273.726 14.1095 273.726 14.2372 273.782 14.3792C273.896 14.6346 274.394 15.2307 275.246 16.1533L275.26 16.1674C275.701 16.6216 276.184 17.0048 276.71 17.3029V17.3171C277.35 17.6719 278.003 17.9557 278.686 18.1686H278.728C279.581 18.3815 280.263 18.3957 280.761 18.2112L280.789 18.197C281.713 17.7996 281.869 17.1467 281.244 16.2668C281.016 15.9404 280.661 15.5714 280.178 15.1598L280.149 15.1456C279.027 14.3082 277.819 13.7547 276.511 13.4992C277.279 13.3573 278.06 13.2296 278.856 13.1018C279.14 13.0592 279.41 13.0309 279.695 13.0025C279.78 13.1018 279.922 13.1728 280.093 13.187C282.85 13.4992 285.55 14.4643 288.208 16.0823L292.628 19.1479C292.585 19.2047 292.543 19.2615 292.528 19.3324C292.5 19.446 292.472 19.5169 292.457 19.5595C292.187 19.9143 292.003 20.184 291.917 20.3685C291.789 20.6098 291.676 20.8794 291.576 21.1633C291.391 21.7026 291.391 22.1852 291.605 22.5967V22.6109C291.96 23.2354 292.486 23.6186 293.14 23.7464C293.765 23.8741 294.348 23.647 294.902 23.0793C295.456 23.576 296.067 23.9734 296.749 24.2573L296.778 24.2715C298.142 24.7682 299.166 24.7398 299.862 24.2005H299.876C300.729 23.5193 300.857 22.6677 300.246 21.66L300.231 21.6316C299.819 21.0355 299.336 20.553 298.782 20.184C298.967 20.0421 299.094 19.8859 299.18 19.744C299.563 19.0344 299.109 18.4525 297.787 18.0125C297.758 17.9983 297.716 17.9841 297.673 17.9841C296.323 17.757 294.959 17.9273 293.566 18.4809C293.552 18.4809 293.537 18.495 293.523 18.5092L288.975 15.3585L288.947 15.3443C286.886 14.0811 284.783 13.187 282.637 12.676C285.977 12.3212 288.123 12.1509 289.089 12.1793H289.132C292.116 12.1225 294.49 12.1225 296.252 12.1651C296.38 12.2928 296.565 12.3638 296.764 12.3354C297.091 12.3212 297.417 12.2786 297.73 12.2361C298.142 12.2645 298.512 12.2928 298.81 12.3354C298.853 12.3354 298.881 12.3354 298.924 12.3354H298.91C299.137 12.3496 300.473 12.5057 302.903 12.8038C302.861 12.8605 302.832 12.9173 302.804 12.9741V12.9883C302.704 13.2721 302.775 13.6695 303.017 14.1805C303.301 14.8475 303.657 15.4294 304.097 15.9404L304.111 15.9546C304.993 16.9197 305.945 17.4164 306.954 17.4448C306.982 17.4448 307.025 17.4448 307.053 17.4306C307.778 17.3596 308.205 17.0048 308.332 16.3803V16.3661C308.432 15.7559 308.332 15.1881 308.02 14.6488V14.6346C307.821 14.3082 307.522 14.0102 307.139 13.7547C306.968 13.6411 306.655 13.4708 306.186 13.2437L309.242 13.6553C309.27 13.7405 309.342 13.8256 309.441 13.8824C311.53 15.0178 312.681 15.6849 312.88 15.8836C312.866 15.8694 312.852 15.841 312.824 15.8126C312.866 15.8694 312.909 15.9404 312.98 15.9829C314.046 16.7919 315.737 18.3531 318.025 20.6807L318.068 20.7091L318.054 20.6949C318.793 21.3478 319.475 21.8871 320.1 22.3271C321.038 23.0083 322.53 23.7747 324.563 24.6405C324.037 25.3501 323.724 25.8611 323.653 26.1449C323.454 26.6559 323.469 27.1242 323.667 27.55C324.193 28.7422 325.117 29.168 326.425 28.8131C326.666 28.7564 326.922 28.657 327.192 28.5293C327.263 28.4867 327.334 28.4299 327.377 28.3732C328.954 29.1396 330.29 29.1538 331.385 28.4016C331.413 28.3874 331.442 28.359 331.47 28.3448C332.465 27.3229 332.337 26.301 331.086 25.2934C331.072 25.2792 331.044 25.265 331.015 25.2508C329.765 24.4986 328.343 24.1296 326.766 24.1154C326.965 23.9876 327.149 23.8741 327.334 23.8031C327.746 23.6186 328.187 23.5335 328.684 23.5193C329.125 23.5051 329.551 23.6328 329.978 23.8883C330.177 24.016 330.262 24.1154 330.205 24.1863C330.063 24.4276 330.177 24.7115 330.475 24.825C330.774 24.9385 331.129 24.8534 331.285 24.6121C331.626 24.0728 331.442 23.5902 330.717 23.1503C330.077 22.7529 329.381 22.5542 328.642 22.5684C327.96 22.5825 327.334 22.7245 326.752 22.9658C326.311 23.1645 325.828 23.4767 325.345 23.9025C323.298 23.0367 321.806 22.2703 320.91 21.6174H320.896C320.313 21.2059 319.66 20.6949 318.963 20.0704C316.661 17.757 314.955 16.1816 313.847 15.3301C313.833 15.3159 313.833 15.3017 313.818 15.2875C313.619 15.103 312.923 14.663 311.743 13.996L316.988 14.7056C317.016 14.9185 317.201 15.0888 317.471 15.1314C317.997 15.2023 318.707 15.174 319.574 15.0604C319.958 15.1172 321.379 15.2733 323.852 15.5572C324.648 15.6991 326.211 15.7984 328.557 15.8836C328.571 15.9546 328.599 16.0255 328.656 16.0823C329.224 16.7352 330.049 17.3454 331.101 17.8706L331.072 17.8564C332.721 18.8215 334.241 19.5311 335.648 20.0137C337.297 20.553 338.789 20.9362 340.154 21.1633H340.182C341.774 21.3762 342.811 21.4046 343.309 21.2201C343.423 21.1633 343.522 21.1065 343.607 21.0355C343.892 20.851 344.005 20.6098 343.934 20.2975C343.892 20.113 343.764 19.9143 343.565 19.7014C343.337 19.4602 342.996 19.1905 342.556 18.8641L342.57 18.8783C341.632 18.1686 340.111 17.3596 337.979 16.4655C337.61 16.3094 337.254 16.1674 336.913 16.0397C337.411 16.0397 337.894 16.0397 338.363 16.0255H338.377C340.111 15.9687 341.76 15.8552 343.337 15.6991C345.81 15.4152 348.326 14.8759 350.87 14.0953C350.983 14.365 351.168 14.6204 351.424 14.8617L351.396 14.8333C352.703 16.2526 354.224 16.9906 355.972 17.0332C356 17.0332 356.043 17.0332 356.071 17.0332C356.626 16.9622 357.038 16.8345 357.28 16.6216C357.478 16.4655 357.578 16.2668 357.592 16.0539C357.592 15.9829 357.592 15.9262 357.578 15.8694C357.564 15.7559 357.521 15.6423 357.45 15.5146C357.436 15.5004 357.422 15.472 357.407 15.4578C357.123 15.1172 356.683 14.805 356.086 14.5211C357.379 14.3508 358.488 14.0102 359.383 13.4566C360.477 12.8038 361.017 11.9948 360.961 11.0297ZM337.141 10.6181C337.098 10.76 336.956 10.8594 336.714 10.902C336.132 10.9445 335.464 10.8878 334.739 10.7033C334.355 10.5897 334.042 10.4762 333.758 10.3484C333.843 10.3484 333.943 10.3626 334.028 10.3484C334.867 10.2633 335.677 10.0646 336.444 9.76654C336.444 9.89427 336.501 10.0362 336.643 10.1214C336.999 10.3626 337.169 10.5187 337.141 10.6181ZM335.592 5.63646C336.032 5.45195 336.473 5.46614 336.913 5.69323C337.311 5.97708 337.51 6.37448 337.539 6.88541C337.453 7.6944 336.942 8.36146 336.004 8.88659C335.322 9.15625 334.611 9.34075 333.858 9.41172H333.815C333.645 9.4401 333.403 9.38333 333.119 9.2556C333.374 7.50989 334.199 6.30351 335.592 5.63646ZM331.484 6.99896C331.498 6.9138 331.598 6.87122 331.768 6.84284C331.982 6.81445 332.28 6.85703 332.635 6.97057C332.323 7.52408 332.095 8.17695 331.967 8.90078C331.868 8.77304 331.783 8.6595 331.74 8.57435H331.726V8.56015C331.641 8.43242 331.57 8.2905 331.527 8.14857C331.399 7.70859 331.385 7.33958 331.484 6.99896ZM315.623 4.5862C316.277 4.89843 316.604 5.13971 316.604 5.32422C316.59 5.3526 316.604 5.38099 316.604 5.40937C316.647 5.67904 316.405 5.97708 315.851 6.26094C315.424 6.45963 314.799 6.48802 313.946 6.37448C313.577 6.31771 313.349 6.26094 313.221 6.21836L313.207 6.20416C313.008 6.11901 312.767 6.00546 312.525 5.84935C313.307 5.86354 314.046 5.65065 314.742 5.21068H314.756C315.069 4.99779 315.339 4.78489 315.581 4.55781C315.595 4.55781 315.595 4.572 315.623 4.5862ZM314.501 1.50638C314.643 1.4638 314.756 1.43541 314.856 1.42122C315.14 1.40703 315.325 1.67669 315.396 2.23021C315.439 3.08177 314.97 3.81979 313.989 4.47265C313.349 4.88424 312.639 4.98359 311.857 4.79909C311.957 3.81979 312.838 2.72695 314.501 1.50638ZM309.981 4.44427L309.967 4.43008C309.739 4.25976 309.54 4.07526 309.356 3.87656C308.958 3.43659 308.773 3.06758 308.801 2.76953V2.74114C308.83 2.69856 308.915 2.64179 309.057 2.55664C309.071 2.55664 309.086 2.54245 309.1 2.52825C309.185 2.49987 309.37 2.48568 309.64 2.48568H309.668C310.095 2.47148 310.578 2.67018 311.104 3.11015C311.146 3.13854 311.203 3.16692 311.246 3.18112C310.891 3.73463 310.692 4.27396 310.649 4.79909C310.635 4.81328 310.606 4.82747 310.592 4.84166C310.251 4.62877 310.052 4.48685 309.981 4.44427ZM274.934 14.1947C274.934 14.223 274.919 14.2514 274.905 14.2798C274.919 14.2514 274.919 14.223 274.919 14.1947C274.934 14.1947 274.934 14.1947 274.934 14.1947ZM280.192 16.7352C280.42 17.0474 280.42 17.2603 280.221 17.3596C280.007 17.4306 279.638 17.4022 279.098 17.2745C278.529 17.1042 277.975 16.8629 277.421 16.5506C276.994 16.2952 276.596 15.9687 276.213 15.5855C275.616 14.9469 275.218 14.4927 275.033 14.2372C275.09 14.2514 275.147 14.2798 275.204 14.2798C276.696 14.365 278.06 14.8901 279.311 15.8268C279.709 16.1674 280.007 16.4655 280.192 16.7352ZM294.078 22.3697C293.793 22.7103 293.58 22.8664 293.452 22.838L293.438 22.8238C293.154 22.7812 292.912 22.5826 292.713 22.2419C292.614 22.029 292.614 21.7452 292.742 21.4187V21.4046C292.827 21.1633 292.926 20.9362 293.026 20.7233L293.04 20.7091C293.097 20.5956 293.211 20.4111 293.395 20.1556C293.41 20.553 293.452 20.9078 293.537 21.2059C293.637 21.5181 293.779 21.8303 293.992 22.1284L294.006 22.1568C294.049 22.2135 294.106 22.2561 294.149 22.3129C294.134 22.3413 294.106 22.3413 294.078 22.3697ZM299.023 23.5193C298.725 23.7605 298.142 23.718 297.304 23.4199C296.437 23.0509 295.684 22.469 295.044 21.66C294.888 21.4471 294.774 21.22 294.717 21.0072V20.993C294.618 20.6523 294.575 20.2124 294.603 19.673V19.6589C295.3 19.7866 295.769 19.9001 295.996 19.9853L295.84 19.8859L296.01 19.9853C296.522 20.1698 297.048 20.3827 297.588 20.6523C298.199 20.9646 298.725 21.4329 299.166 22.0716C299.521 22.6819 299.478 23.1645 299.023 23.5193ZM297.375 18.9066C297.901 19.0911 298.142 19.2473 298.071 19.3608C298.043 19.4176 297.972 19.4885 297.872 19.5737C297.844 19.6021 297.815 19.6305 297.801 19.6589C297.375 19.4602 296.948 19.2756 296.522 19.1337C296.522 19.1195 296.522 19.1195 296.508 19.1195C296.323 19.0486 296.039 18.9776 295.683 18.8924C296.252 18.8215 296.806 18.8215 297.375 18.9066ZM295.072 6.7293C296.067 6.37448 296.65 6.30351 296.82 6.54479C296.991 6.84284 296.579 7.42474 295.584 8.2763C294.66 8.98594 293.338 9.69557 291.633 10.4052C290.951 10.6323 290.397 10.8168 289.942 10.9303C291.69 8.92917 293.395 7.53828 295.072 6.7293ZM326.041 27.919C325.487 28.0609 325.074 27.8339 324.804 27.2236L324.79 27.2094C324.691 26.9823 324.691 26.7126 324.804 26.3862L324.819 26.3578C324.847 26.2443 324.947 26.0598 325.117 25.8043C325.33 26.5139 325.785 27.1668 326.482 27.7487C326.325 27.8197 326.169 27.8764 326.041 27.919ZM330.56 27.7203C329.892 28.1319 329.026 28.0751 327.945 27.5358C326.865 26.8404 326.283 26.0314 326.197 25.0805C326.311 25.0805 326.425 25.0663 326.538 25.0663C326.609 25.1372 326.723 25.194 326.851 25.2224L327.093 25.265C327.306 25.2934 327.505 25.2366 327.647 25.123C328.599 25.2366 329.466 25.5204 330.262 25.9888C330.973 26.5707 331.072 27.1526 330.56 27.7203ZM315.311 13.2721C315.922 12.0374 316.874 11.0723 318.167 10.391L318.182 10.3768C318.693 10.093 319.12 9.92266 319.503 9.89427C319.759 9.88008 319.93 9.89427 319.987 9.93685C320.114 10.4904 319.617 11.2284 318.494 12.1651C317.215 13.0592 316.107 13.5134 315.183 13.4992C315.169 13.4992 315.169 13.4992 315.154 13.4992L315.069 13.485C315.169 13.4283 315.254 13.3715 315.311 13.2721ZM306.357 14.4927C306.627 14.6488 306.812 14.8333 306.925 15.032C307.139 15.4152 307.21 15.8126 307.139 16.2242C307.11 16.3803 307.039 16.4655 306.925 16.4939C306.328 16.4513 305.717 16.0965 305.092 15.401C304.708 14.9611 304.396 14.4501 304.154 13.8682L304.14 13.8398C303.983 13.5276 303.927 13.3289 303.969 13.2296C303.955 13.2437 303.955 13.2437 303.955 13.2579C303.983 13.2296 303.983 13.187 303.998 13.1444C304.026 13.187 304.069 13.2438 304.111 13.2721C304.225 13.3715 304.367 13.4566 304.538 13.556L304.595 13.5844C305.561 14.0385 306.144 14.3366 306.343 14.4785L306.357 14.4927ZM341.731 19.5595L341.746 19.5737C342.143 19.8434 342.413 20.0704 342.598 20.2691C342.641 20.3117 342.669 20.3401 342.698 20.3827C342.371 20.4395 341.603 20.3969 340.395 20.2266C339.116 20.0137 337.681 19.6589 336.117 19.1479C334.81 18.6937 333.36 18.0125 331.783 17.1042L331.754 17.0758C331.044 16.721 330.475 16.3378 330.02 15.9262C330.589 15.9404 331.2 15.9546 331.84 15.9687C332.451 15.9829 333.048 15.9971 333.645 16.0113C333.673 16.0113 333.716 16.0255 333.758 16.0255H333.772C334.568 16.1958 335.791 16.6216 337.411 17.3029C339.443 18.1544 340.879 18.9066 341.731 19.5595ZM350.529 10.0504C350.713 9.78073 350.87 9.6388 350.998 9.62461C351.026 9.62461 351.069 9.62461 351.097 9.61042C351.225 9.58203 351.339 9.6388 351.452 9.75234C351.609 10.0078 351.694 10.2633 351.68 10.5471C351.666 10.5755 351.68 10.5897 351.68 10.6181V10.6039C351.666 10.76 351.509 11.1858 351.182 11.9238C351.182 11.9238 351.182 11.938 351.182 11.9522C351.04 12.1651 350.941 12.378 350.87 12.5767C350.728 12.2077 350.557 11.6684 350.358 10.9587C350.287 10.6039 350.344 10.3059 350.529 10.0504ZM356.37 15.9404C356.37 15.9546 356.384 15.9687 356.384 15.9829C356.313 16.0255 356.185 16.0539 355.972 16.0823C354.707 16.0397 353.57 15.4862 352.561 14.4501C352.959 14.5353 353.442 14.5921 353.996 14.6062C354.053 14.7482 354.167 14.8617 354.352 14.9185C355.375 15.2307 356.043 15.5714 356.37 15.9404ZM358.658 12.6902L358.63 12.7044C357.763 13.2438 356.626 13.5702 355.219 13.6695C353.556 13.7121 352.547 13.5986 352.163 13.3005C352.149 13.2579 352.149 13.2154 352.12 13.1728C352.092 13.116 352.035 13.0592 351.978 13.0167C352.064 12.676 352.263 12.3212 352.575 11.9096C354.48 9.99362 356.384 9.31237 358.26 9.89427C359.156 10.1781 359.653 10.5755 359.752 11.1006C359.781 11.7251 359.411 12.2503 358.658 12.6902ZM349.491 9.56784C349.491 9.58203 349.491 9.58203 349.491 9.58203H349.477L349.491 9.56784ZM334 10.3484C334 10.3484 334.014 10.3484 334.028 10.3484H334ZM313.818 15.3017C313.818 15.2875 313.818 15.2875 313.818 15.2875V15.3017ZM293.14 23.7464C293.154 23.7464 293.154 23.7464 293.154 23.7464H293.14ZM291.917 20.3685C291.917 20.3685 291.903 20.3685 291.903 20.3827L291.917 20.3685ZM323.667 27.5358C323.667 27.5358 323.667 27.5358 323.667 27.55H323.682L323.667 27.5358ZM323.653 26.1307V26.1449C323.639 26.1449 323.639 26.1591 323.639 26.1591L323.653 26.1307ZM312.667 7.05573C312.667 7.05573 312.667 7.05573 312.681 7.05573H312.667ZM309.114 5.09713C309.128 5.09713 309.128 5.09713 309.128 5.11133L309.114 5.09713ZM307.608 2.68437C307.608 2.69856 307.608 2.71276 307.608 2.71276C307.608 2.72695 307.608 2.74114 307.608 2.75534V2.68437ZM307.139 13.7689C307.139 13.7689 307.139 13.7689 307.139 13.7547H307.124L307.139 13.7689ZM317.485 9.61042C317.485 9.61042 317.485 9.61042 317.471 9.61042H317.485ZM319.446 8.94336H319.432C319.418 8.94336 319.418 8.94336 319.418 8.94336H319.446Z" fill="#58684E"/>
    <mask id="mask1_1_3" style="mask-type:luminance" maskUnits="userSpaceOnUse" x="181" y="0" width="92" height="31">
        <path d="M181.218 0.300003H272.176V30.1757H181.218V0.300003Z" fill="white"/>
    </mask>
    <g mask="url(#mask1_1_3)">
        <path d="M269.689 19.2898V19.3324C269.533 20.2266 268.78 20.8794 267.429 21.3052V21.3194C265.425 21.9155 263.478 21.5181 261.588 20.0846C261.56 20.4111 261.432 20.7375 261.233 21.0355C261.219 21.0639 261.204 21.0781 261.19 21.0923C260.735 21.5891 260.167 21.7736 259.499 21.6174L259.584 21.6316C259.058 21.5749 258.604 21.2768 258.22 20.7375C257.879 20.2975 257.779 19.7724 257.893 19.2047L257.907 19.1621V19.1763C258.191 18.1402 258.447 17.4164 258.703 16.9764C256.401 16.281 254.127 15.8126 251.91 15.5572C250.375 15.401 248.754 15.2875 247.063 15.2449C245.656 15.2307 244.15 15.2307 242.515 15.2591C241.478 15.472 240.298 15.5997 238.934 15.6423C238.678 15.6423 238.451 15.5288 238.365 15.3443C235.48 15.4294 233.633 15.543 232.822 15.6849L232.766 15.6991C232.24 15.7559 231.757 15.8126 231.33 15.8552C232.169 16.0681 232.993 16.3094 233.789 16.5932C236.276 17.4874 238.55 18.5944 240.639 19.8859C240.668 19.8434 240.682 19.815 240.724 19.7866C241.193 19.4176 241.961 19.0628 243.055 18.7363L243.084 18.7221C243.993 18.495 244.832 18.4099 245.599 18.4809H245.642C246.452 18.6086 246.907 18.9492 247.049 19.5169C247.163 19.9711 246.864 20.4395 246.154 20.922C246.097 20.9504 246.026 20.9788 245.955 21.0072C246.878 21.6458 247.39 22.4406 247.475 23.3915V23.4341C247.447 24.2573 247.092 24.896 246.424 25.3643C246.395 25.3785 246.381 25.3927 246.353 25.4069C245.5 25.8611 244.619 25.8895 243.737 25.5062H243.723C243.013 25.1656 242.43 24.7256 241.961 24.1863C241.321 24.3992 240.767 24.4702 240.284 24.4134C239.573 24.2999 239.161 24.0018 239.033 23.5193C238.905 23.0509 238.92 22.5258 239.09 21.9439V21.9297C239.161 21.7168 239.261 21.5181 239.389 21.3336C239.488 21.1633 239.659 20.9362 239.9 20.624C237.896 19.3892 235.693 18.3247 233.291 17.459C231.97 16.9906 230.577 16.6216 229.113 16.3661L229.099 16.3519C228.815 16.3094 228.559 16.2526 228.303 16.2242L226.384 16.4797C226.924 16.7352 227.479 17.0616 228.047 17.459L228.076 17.4874C229.539 18.6796 230.136 19.7298 229.895 20.6098L229.88 20.6523C229.852 20.7091 229.824 20.7659 229.795 20.8227C229.738 20.9078 229.667 20.9788 229.582 21.0497C229.269 21.291 228.8 21.4046 228.161 21.3762H228.104C227.521 21.3194 226.882 21.0923 226.2 20.7091C224.721 19.9143 223.627 18.8073 222.916 17.388C222.831 17.2319 222.874 17.0758 223.002 16.948L213.252 18.268C211.689 18.4667 210.452 18.6228 209.543 18.7363C212.897 19.6872 216.18 21.5039 219.406 24.1579C219.434 24.1437 219.463 24.1296 219.477 24.1012C219.633 23.9734 219.861 23.9309 220.06 23.9734C220.159 23.8741 220.316 23.8031 220.515 23.7889H220.415L220.372 23.8173C220.387 23.8031 220.387 23.8031 220.401 23.7889C220.387 23.7889 220.372 23.8031 220.372 23.8031C220.387 23.7889 220.415 23.7889 220.444 23.7747C220.785 23.5477 221.097 23.3773 221.41 23.2638C221.623 23.1786 221.978 23.0935 222.447 23.0225C223.613 22.8522 224.522 22.9232 225.205 23.2496L225.233 23.2638C226.214 23.7747 226.64 24.3708 226.526 25.0379V24.9527C226.569 25.5062 226.043 26.0456 224.963 26.5423C224.963 26.5565 224.949 26.5565 224.935 26.5565C225.233 27.0533 225.361 27.5784 225.333 28.1461V28.1745C225.162 29.3667 224.537 29.9344 223.457 29.835C223.201 29.8208 222.931 29.7499 222.646 29.6505C222.59 29.6221 222.547 29.6079 222.504 29.5654C221.723 29.0118 221.097 28.4725 220.614 27.9332C219.861 28.5293 219.108 28.8131 218.34 28.7848C217.885 28.7848 217.544 28.728 217.303 28.6428C217.175 28.6003 217.075 28.5435 216.99 28.4725L217.089 28.5293C216.748 28.3448 216.535 28.1461 216.421 27.9332C216.365 27.8197 216.336 27.7061 216.336 27.6068C216.294 27.0816 216.549 26.4997 217.118 25.8753C217.331 25.6482 217.587 25.4211 217.857 25.2224C217.942 25.1514 218.155 24.9953 218.496 24.7824C214.531 21.5181 210.495 19.6021 206.388 19.0344C205.08 19.1195 203.304 19.1479 201.044 19.1337C202.806 19.8717 204.17 20.6098 205.165 21.3762L205.18 21.3904C206.558 22.5684 207.041 23.5051 206.643 24.1863L206.629 24.2005C206.118 24.9811 204.995 25.0663 203.261 24.4418L203.204 24.4134C201.214 23.4625 199.21 21.7878 197.192 19.3608C197.05 19.3608 196.908 19.3324 196.794 19.2473C196.723 19.1905 196.681 19.1337 196.652 19.0628C194.861 18.9776 191.777 18.6796 187.386 18.1544H187.357C185.808 17.899 184.302 17.6435 182.852 17.3738V15.4578C183.094 15.1456 183.477 14.7198 183.975 14.1663L183.989 14.1521C184.43 13.6979 184.913 13.3147 185.439 13.0167V13.0025C186.078 12.6477 186.732 12.3638 187.414 12.1509H187.457C188.31 11.938 188.992 11.9238 189.489 12.1083L189.518 12.1225C190.441 12.5199 190.598 13.1728 189.972 14.0527C189.745 14.3792 189.39 14.7482 188.906 15.1598L188.878 15.174C187.755 16.0113 186.547 16.5648 185.24 16.8203C186.007 16.9622 186.789 17.09 187.585 17.2177C187.869 17.2603 188.139 17.2887 188.423 17.3171C188.509 17.2177 188.651 17.1467 188.821 17.1325C191.578 16.8203 194.279 15.8552 196.936 14.2372L201.356 11.1716C201.314 11.1148 201.271 11.0581 201.257 10.9871C201.229 10.8736 201.2 10.8026 201.186 10.76C200.916 10.4052 200.731 10.1355 200.646 9.95104C200.518 9.70976 200.404 9.4401 200.305 9.15625C200.12 8.61692 200.12 8.13437 200.333 7.72278V7.70859C200.703 7.08411 201.214 6.70091 201.882 6.57317C202.493 6.44544 203.076 6.67252 203.63 7.24023C204.185 6.74349 204.796 6.34609 205.478 6.06224L205.506 6.04804C206.871 5.5513 207.894 5.57969 208.59 6.11901H208.605C209.457 6.80026 209.585 7.65182 208.974 8.6595L208.96 8.68789C208.548 9.28398 208.065 9.76653 207.51 10.1355C207.695 10.2775 207.823 10.4336 207.908 10.5755C208.292 11.2852 207.837 11.8671 206.516 12.307C206.487 12.3212 206.444 12.3354 206.402 12.3354C205.052 12.5625 203.687 12.3922 202.294 11.8387C202.28 11.8387 202.266 11.8245 202.252 11.8103L197.704 14.9611L197.675 14.9753C195.615 16.2384 193.511 17.1325 191.365 17.6435C194.705 17.9983 196.851 18.1686 197.818 18.1402H197.86C200.845 18.197 203.218 18.197 204.981 18.1544C205.108 18.0267 205.293 17.9557 205.492 17.9841C205.819 17.9983 206.146 18.0409 206.459 18.0835C206.885 18.0551 207.24 18.0267 207.539 17.9841C207.581 17.9841 207.624 17.9841 207.652 17.9841H207.638C207.866 17.9699 209.202 17.8138 211.632 17.5158C211.589 17.459 211.561 17.4022 211.532 17.3454C211.433 17.0474 211.504 16.65 211.746 16.1391C212.03 15.4862 212.385 14.8901 212.826 14.3792L212.84 14.365C213.721 13.3999 214.673 12.9031 215.682 12.8747C215.711 12.8747 215.753 12.8747 215.782 12.8889C216.507 12.9599 216.933 13.3147 217.061 13.9392V13.9534C217.175 14.5637 217.061 15.1314 216.748 15.6707V15.6849C216.549 16.0113 216.251 16.3094 215.867 16.5648C215.697 16.6784 215.384 16.8487 214.915 17.0758L217.971 16.6642C218.013 16.579 218.07 16.4939 218.17 16.4371C220.259 15.3017 221.41 14.6346 221.609 14.4359C221.595 14.4501 221.581 14.4785 221.552 14.5069C221.595 14.4501 221.637 14.3792 221.708 14.3366C222.774 13.5276 224.466 11.9664 226.754 9.6388L226.796 9.61041L226.782 9.62461C227.521 8.97174 228.203 8.43242 228.829 7.99244C229.767 7.31119 231.259 6.54479 233.291 5.67903C232.766 4.9694 232.453 4.45846 232.382 4.17461C232.197 3.66367 232.197 3.19531 232.396 2.76953C232.922 1.57734 233.846 1.15156 235.153 1.50638C235.395 1.56315 235.651 1.6625 235.921 1.79023C235.992 1.83281 236.063 1.88958 236.105 1.94635C237.683 1.17995 239.019 1.16575 240.113 1.91796C240.156 1.93216 240.184 1.96054 240.199 1.97474C241.193 2.99661 241.066 4.01849 239.815 5.02617C239.801 5.04036 239.772 5.05455 239.744 5.06875C238.507 5.82096 237.086 6.18997 235.494 6.20416C235.693 6.3319 235.878 6.44544 236.063 6.5164C236.475 6.70091 236.916 6.78606 237.413 6.80026C237.854 6.81445 238.294 6.68671 238.706 6.43125C238.905 6.30351 238.991 6.20416 238.934 6.1332C238.792 5.89192 238.905 5.60807 239.204 5.49453C239.502 5.38099 239.858 5.46614 240.014 5.70742C240.355 6.24674 240.17 6.72929 239.445 7.16927C238.806 7.56666 238.109 7.76536 237.37 7.75117C236.688 7.73698 236.063 7.59505 235.48 7.35377C235.04 7.15508 234.556 6.84283 234.073 6.41705C232.027 7.28281 230.534 8.04921 229.639 8.70208H229.625C229.042 9.11367 228.388 9.62461 227.692 10.2491C225.389 12.5625 223.684 14.1379 222.575 14.9894C222.561 15.0036 222.561 15.0178 222.547 15.032C222.348 15.2165 221.652 15.6565 220.472 16.3236L225.716 15.6139C225.745 15.401 225.929 15.2307 226.2 15.1881C226.725 15.1172 227.436 15.1456 228.303 15.2591C228.687 15.2023 230.108 15.0462 232.581 14.7624C233.377 14.6204 234.94 14.5211 237.285 14.4359C237.299 14.365 237.328 14.294 237.385 14.2372C237.967 13.5844 238.777 12.9741 239.829 12.449L239.801 12.4631C241.449 11.498 242.97 10.7884 244.377 10.3059C246.026 9.76653 247.518 9.38333 248.882 9.15625H248.911C250.503 8.94335 251.54 8.91497 252.037 9.09948C252.151 9.15625 252.251 9.21302 252.336 9.28398C252.62 9.46849 252.734 9.70976 252.663 10.022C252.62 10.2065 252.492 10.4052 252.293 10.6181C252.066 10.8594 251.725 11.129 251.284 11.4555L251.298 11.4413C250.36 12.1509 248.84 12.9599 246.708 13.854C246.338 14.0102 245.983 14.1521 245.656 14.2798C246.139 14.2798 246.623 14.2798 247.092 14.294H247.106C248.84 14.3508 250.488 14.4643 252.066 14.6204C254.539 14.9043 257.054 15.4436 259.598 16.2242C259.712 15.9546 259.897 15.6991 260.153 15.4578L260.124 15.4862C261.432 14.0669 262.952 13.3289 264.701 13.2863C264.729 13.2863 264.772 13.2863 264.8 13.2863C265.354 13.3573 265.767 13.485 266.022 13.6979C266.207 13.854 266.307 14.0527 266.321 14.2656C266.321 14.3366 266.321 14.3934 266.307 14.4501C266.292 14.5637 266.25 14.6772 266.179 14.8049C266.164 14.8191 266.15 14.8475 266.136 14.8617C265.852 15.2023 265.411 15.5146 264.814 15.7984C266.108 15.9687 267.216 16.3094 268.112 16.8629C269.206 17.5157 269.746 18.3247 269.689 19.2898ZM234.926 5.23906C235.04 5.23906 235.153 5.25325 235.267 5.25325C235.338 5.18229 235.452 5.12552 235.58 5.09713L235.821 5.05455C236.034 5.02617 236.233 5.08294 236.376 5.19648C237.328 5.08294 238.195 4.79908 238.991 4.33073C239.701 3.74883 239.801 3.16692 239.289 2.59921C238.621 2.18763 237.754 2.2444 236.674 2.78372C235.594 3.47916 235.011 4.28815 234.926 5.23906ZM233.533 3.93333L233.547 3.96171C233.576 4.07526 233.675 4.25976 233.846 4.51523C234.059 3.8056 234.514 3.15273 235.21 2.57083C235.054 2.49987 234.897 2.4431 234.77 2.40052C234.215 2.25859 233.803 2.48567 233.533 3.09596L233.519 3.11015C233.419 3.33724 233.419 3.6069 233.533 3.93333ZM206.814 10.9587C206.771 10.9019 206.7 10.831 206.601 10.7458C206.572 10.7174 206.558 10.6891 206.53 10.6607C206.103 10.8594 205.677 11.0439 205.251 11.1858C205.251 11.2 205.251 11.2 205.236 11.2C205.052 11.271 204.767 11.3419 204.412 11.4271C204.981 11.498 205.549 11.498 206.103 11.4129C206.629 11.2284 206.871 11.0723 206.814 10.9587ZM203.332 10.6465V10.6607C204.028 10.5329 204.497 10.4194 204.725 10.3342L204.568 10.4336L204.739 10.3342C205.251 10.1497 205.776 9.93685 206.317 9.66718C206.928 9.35495 207.454 8.88658 207.894 8.24791C208.249 7.63763 208.207 7.15508 207.752 6.80026C207.454 6.55898 206.871 6.60156 206.032 6.89961C205.165 7.26862 204.412 7.85052 203.773 8.6595C203.616 8.87239 203.502 9.09948 203.446 9.32656C203.346 9.66718 203.304 10.1072 203.332 10.6465ZM201.47 8.90078V8.91497C201.555 9.15625 201.655 9.38333 201.754 9.59622L201.769 9.61041C201.825 9.72395 201.939 9.90846 202.124 10.1639C202.138 9.76653 202.181 9.41171 202.266 9.11367C202.366 8.80143 202.508 8.48919 202.721 8.19114L202.735 8.16276C202.792 8.10599 202.835 8.06341 202.877 8.00664C202.863 7.99244 202.835 7.97825 202.806 7.94987C202.522 7.60924 202.309 7.45312 202.181 7.48151L202.167 7.4957C201.882 7.53828 201.641 7.73698 201.442 8.0776C201.342 8.29049 201.342 8.57434 201.47 8.90078ZM183.662 16.1249C183.662 16.0965 183.648 16.0681 183.634 16.0397C183.648 16.0681 183.648 16.0965 183.648 16.1249C183.662 16.1249 183.662 16.1249 183.662 16.1249ZM183.932 16.0397C185.424 15.9546 186.789 15.4294 188.04 14.4927C188.437 14.1521 188.736 13.854 188.921 13.5844C189.148 13.2721 189.148 13.0592 188.949 12.9599C188.736 12.8889 188.366 12.9173 187.841 13.045C187.258 13.2154 186.704 13.4566 186.149 13.7689C185.723 14.0243 185.325 14.3508 184.941 14.734C184.344 15.3727 183.946 15.8268 183.762 16.0823C183.818 16.0681 183.875 16.0397 183.932 16.0397ZM200.362 19.9143C199.679 19.6872 199.125 19.5027 198.67 19.4034C200.418 21.3904 202.124 22.7812 203.801 23.5902C204.796 23.945 205.379 24.016 205.549 23.7747C205.72 23.4767 205.307 22.8948 204.313 22.0432C203.389 21.3336 202.067 20.624 200.362 19.9143ZM221.254 24.4702C222.035 24.456 222.789 24.6689 223.471 25.1089H223.485C223.798 25.3217 224.068 25.5346 224.309 25.7617C224.323 25.7617 224.323 25.7475 224.352 25.7333C225.006 25.4211 225.333 25.1798 225.333 24.9953C225.333 24.9669 225.333 24.9385 225.333 24.9102C225.389 24.6405 225.134 24.3566 224.579 24.0586C224.153 23.8599 223.528 23.8315 222.675 23.945C222.305 24.0018 222.078 24.0586 221.95 24.1012L221.936 24.1154C221.737 24.2005 221.495 24.3141 221.254 24.4702ZM220.586 25.5204C220.685 26.4997 221.566 27.5926 223.229 28.8131C223.371 28.8557 223.485 28.8841 223.584 28.8983C223.869 28.9125 224.053 28.6428 224.125 28.0893C224.167 27.2378 223.698 26.4997 222.718 25.8469C222.078 25.4353 221.367 25.3359 220.586 25.5204ZM218.695 25.8894C218.468 26.0598 218.269 26.2443 218.099 26.443C217.686 26.8829 217.502 27.252 217.53 27.55V27.5784C217.558 27.621 217.644 27.6777 217.786 27.7629C217.8 27.7629 217.814 27.7771 217.828 27.7913C217.914 27.8197 218.099 27.8339 218.369 27.8339H218.397C218.823 27.848 219.307 27.6493 219.832 27.2094C219.875 27.181 219.932 27.1526 219.975 27.1384C219.619 26.5849 219.42 26.0456 219.378 25.5204C219.363 25.5062 219.335 25.4921 219.321 25.4779C218.98 25.6907 218.781 25.8327 218.71 25.8753L218.695 25.8894ZM213.323 16.7352C214.29 16.281 214.872 15.9829 215.071 15.841L215.086 15.8268C215.356 15.6707 215.54 15.4862 215.654 15.2875C215.867 14.9043 215.938 14.5069 215.867 14.0953C215.839 13.9392 215.768 13.854 215.654 13.8256C215.057 13.8682 214.446 14.223 213.821 14.9185C213.437 15.3585 213.124 15.8694 212.883 16.4513L212.868 16.4797C212.712 16.7919 212.655 16.9906 212.698 17.09C212.684 17.0758 212.684 17.0758 212.684 17.0616C212.712 17.09 212.712 17.1325 212.74 17.1751C212.769 17.1325 212.797 17.0758 212.84 17.0474C212.954 16.948 213.096 16.8629 213.281 16.7635L213.323 16.7352ZM223.911 16.8203C223.897 16.8203 223.897 16.8203 223.883 16.8203L223.798 16.8345C223.897 16.8913 223.982 16.948 224.039 17.0474C224.65 18.2822 225.603 19.2473 226.896 19.9285L226.91 19.9427C227.422 20.2266 227.848 20.3969 228.232 20.4253C228.488 20.4395 228.658 20.4253 228.729 20.3827C228.843 19.8292 228.36 19.0911 227.223 18.1544C225.944 17.2603 224.835 16.8061 223.911 16.8203ZM242.487 19.9711C242.586 19.9711 242.672 19.9569 242.757 19.9711C243.595 20.0562 244.405 20.2549 245.173 20.553C245.173 20.4253 245.23 20.2833 245.372 20.1982C245.727 19.9569 245.898 19.8008 245.869 19.7014C245.827 19.5595 245.685 19.4602 245.443 19.4176C244.86 19.375 244.192 19.446 243.467 19.6163C243.084 19.7298 242.771 19.8575 242.487 19.9711ZM241.847 21.0639C242.103 22.8096 242.927 24.016 244.32 24.6831C244.761 24.8676 245.201 24.8534 245.656 24.6263C246.04 24.3424 246.239 23.945 246.267 23.4341C246.196 22.6251 245.67 21.9581 244.732 21.4471C244.05 21.1633 243.34 20.9788 242.586 20.9078H242.558C242.373 20.8794 242.131 20.9362 241.847 21.0639ZM240.213 23.3206C240.227 23.4057 240.327 23.4483 240.497 23.4767C240.71 23.5051 241.009 23.4625 241.364 23.349C241.051 22.7954 240.838 22.1426 240.696 21.4187C240.597 21.5465 240.511 21.66 240.469 21.7452V21.7594H240.454C240.369 21.8871 240.312 22.029 240.255 22.171C240.128 22.6109 240.113 22.9799 240.213 23.3206ZM246.139 13.0167C248.172 12.1651 249.607 11.4129 250.46 10.76L250.488 10.7458C250.872 10.4762 251.156 10.2491 251.327 10.0504C251.369 10.0078 251.398 9.97942 251.426 9.93685C251.099 9.88007 250.332 9.92266 249.124 10.093C247.845 10.3059 246.409 10.6607 244.846 11.1716C243.538 11.6258 242.089 12.307 240.511 13.2154L240.483 13.2437C239.772 13.5986 239.204 13.9818 238.749 14.3934C239.317 14.3792 239.929 14.365 240.568 14.3508C241.179 14.3366 241.776 14.3224 242.373 14.3082C242.402 14.3082 242.444 14.294 242.487 14.294H242.501C243.311 14.1237 244.519 13.6979 246.139 13.0167ZM261.29 15.8694C261.688 15.7842 262.171 15.7275 262.725 15.7133C262.782 15.5713 262.896 15.4578 263.08 15.401C264.104 15.0888 264.772 14.7482 265.099 14.3792C265.099 14.365 265.113 14.3508 265.113 14.3366C265.042 14.294 264.914 14.2656 264.701 14.2372C263.436 14.2798 262.299 14.8333 261.29 15.8694ZM260.408 19.7014V19.7156C260.408 19.5595 260.238 19.1337 259.911 18.3957C259.911 18.3957 259.911 18.3815 259.911 18.3673C259.769 18.1544 259.684 17.9415 259.598 17.7428C259.456 18.1118 259.286 18.6512 259.087 19.3608C259.016 19.7156 259.073 20.0137 259.257 20.2691C259.442 20.5388 259.598 20.6807 259.726 20.6949C259.769 20.6949 259.797 20.6949 259.826 20.7091C259.954 20.7375 260.067 20.6807 260.181 20.5672C260.352 20.3117 260.423 20.0562 260.408 19.7724C260.408 19.744 260.408 19.7298 260.408 19.7014ZM268.495 19.2189C268.509 18.5944 268.14 18.0693 267.387 17.6293L267.358 17.6151C266.491 17.0758 265.354 16.7493 263.947 16.65C262.284 16.6074 261.275 16.721 260.892 17.019C260.877 17.0616 260.877 17.1042 260.849 17.1467C260.821 17.2035 260.764 17.2603 260.707 17.3029C260.792 17.6435 260.991 17.9983 261.304 18.4099C263.208 20.3259 265.113 21.0072 266.989 20.4253C267.884 20.1414 268.382 19.744 268.495 19.2189Z" fill="#58684E"/>
    </g>
</svg>
